<svg id="svg" version="1.1" xmlns="http://www.w3.org/2000/svg" xmlns:xlink="http://www.w3.org/1999/xlink" width="400" height="400" viewBox="0, 0, 400,400"><g id="svgg"><path id="path0" d="M170.245 94.629 C 169.442 95.274,165.931 105.535,149.964 153.906 C 121.888 238.958,119.027 246.823,112.872 255.887 C 109.956 260.181,103.034 265.020,98.626 265.847 C 97.339 266.089,97.266 266.188,97.266 267.683 L 97.266 269.263 112.988 268.996 C 122.461 268.836,132.188 268.892,137.459 269.139 C 147.292 269.599,146.648 269.705,146.308 267.688 L 146.053 266.183 142.716 265.728 C 129.082 263.869,126.493 253.952,133.463 230.273 C 135.484 223.405,140.613 207.737,140.967 207.350 C 141.101 207.202,151.537 207.027,164.157 206.959 L 187.103 206.836 187.724 208.594 C 191.396 218.980,200.854 247.763,201.377 250.142 C 203.279 258.804,199.268 264.220,189.361 266.362 C 186.327 267.018,186.141 267.117,186.264 268.003 C 186.482 269.562,186.426 269.558,202.565 269.151 C 211.145 268.935,220.574 268.756,223.520 268.754 L 228.877 268.750 228.654 266.113 C 228.176 260.436,225.050 250.761,209.381 206.445 C 204.040 191.338,188.638 146.002,178.527 115.625 C 175.079 105.265,171.147 94.141,170.934 94.141 C 170.889 94.141,170.579 94.360,170.245 94.629 M196.866 124.860 C 196.858 135.050,196.566 141.769,195.853 148.145 L 195.602 150.391 197.384 150.391 L 199.166 150.391 200.591 145.996 C 204.863 132.822,212.431 122.835,219.767 120.692 C 221.314 120.239,235.252 120.253,235.663 120.707 C 236.367 121.485,237.052 274.321,236.373 279.054 C 235.306 286.489,229.970 291.693,221.875 293.193 C 220.049 293.532,218.201 293.876,217.769 293.958 C 216.253 294.248,216.926 297.659,218.496 297.647 C 232.693 297.545,238.384 295.102,249.414 284.376 C 258.374 275.662,263.755 271.994,269.824 270.463 L 272.656 269.749 272.657 268.175 L 272.658 266.602 269.184 266.726 C 262.526 266.964,260.436 265.613,258.715 259.961 L 257.645 256.445 257.592 231.641 C 257.519 197.386,257.973 121.194,258.252 120.914 C 258.703 120.464,269.788 120.250,272.994 120.630 C 281.143 121.596,290.388 132.649,293.967 145.703 C 294.527 147.744,295.053 149.634,295.136 149.902 C 295.228 150.199,295.983 150.391,297.058 150.391 C 298.218 150.391,298.825 150.222,298.820 149.902 C 298.815 149.634,298.549 146.514,298.228 142.969 C 297.907 139.424,297.533 131.594,297.397 125.568 L 297.150 114.613 268.009 114.782 C 241.716 114.933,230.715 114.770,203.613 113.823 L 196.875 113.588 196.866 124.860 M167.088 144.238 C 168.581 148.804,173.232 162.998,177.422 175.781 C 181.613 188.564,185.159 199.507,185.302 200.098 L 185.562 201.172 164.461 201.172 C 150.271 201.172,143.359 201.040,143.359 200.770 C 143.359 200.164,150.503 177.465,157.124 157.031 C 160.362 147.041,163.196 138.208,163.422 137.402 C 164.058 135.137,164.195 135.393,167.088 144.238 " stroke="none" fill="#d0ac5e" fill-rule="evenodd"></path><path id="path1" d="M0.000 110.904 C 0.000 199.263,0.099 221.850,0.488 222.007 C 0.879 222.165,0.879 222.210,0.488 222.235 C 0.099 222.259,0.000 240.316,0.000 311.133 L 0.000 400.000 18.717 400.000 C 33.326 400.000,37.478 399.893,37.632 399.512 C 37.789 399.121,37.835 399.121,37.860 399.512 C 37.884 399.903,74.285 400.000,218.945 399.997 L 400.000 399.992 399.998 199.997 L 399.997 0.002 199.999 0.001 L 0.000 -0.001 0.000 110.904 M172.399 97.269 C 173.598 100.381,187.223 140.577,195.899 166.602 C 201.579 183.636,204.112 190.984,211.254 211.133 C 217.657 229.199,223.906 247.385,226.221 254.688 C 227.963 260.184,228.512 262.669,229.031 267.419 L 229.206 269.018 210.208 269.275 C 190.464 269.543,185.883 269.763,186.788 270.399 C 187.213 270.698,187.212 270.738,186.778 270.623 C 186.460 270.538,186.195 269.759,186.108 268.655 L 185.964 266.827 187.416 266.589 C 192.146 265.813,196.013 264.225,198.145 262.182 C 199.567 260.820,200.111 259.821,199.121 260.391 C 198.837 260.554,198.769 260.523,198.958 260.317 C 199.137 260.121,199.484 259.961,199.728 259.961 C 200.464 259.961,201.519 256.598,201.541 254.179 C 201.575 250.624,200.775 247.835,193.891 227.485 C 190.340 216.987,187.340 208.091,187.226 207.715 C 187.031 207.074,185.587 207.031,164.099 207.031 L 141.180 207.031 138.367 215.527 C 129.839 241.290,128.321 250.482,131.288 258.410 C 132.124 260.643,133.657 262.358,134.406 261.895 C 134.712 261.706,134.786 261.760,134.611 262.043 C 133.946 263.120,139.282 265.193,143.750 265.593 L 146.289 265.820 146.409 267.921 C 146.517 269.814,146.459 269.995,145.823 269.744 C 143.497 268.827,96.560 269.097,97.133 270.024 C 97.273 270.249,97.218 270.329,97.012 270.202 C 96.807 270.075,96.736 269.131,96.854 268.104 L 97.070 266.237 99.805 265.228 C 104.388 263.537,109.706 260.227,109.188 259.388 C 108.951 259.005,109.942 258.119,110.256 258.433 C 110.749 258.927,113.777 254.373,116.423 249.158 C 121.259 239.629,123.308 233.753,152.714 145.117 C 172.235 86.276,170.132 91.386,172.399 97.269 M162.207 114.634 C 161.851 115.594,161.501 116.318,161.427 116.245 C 161.206 116.023,162.279 112.891,162.576 112.891 C 162.729 112.891,162.562 113.675,162.207 114.634 M211.719 113.861 C 218.486 113.989,225.166 114.218,226.563 114.371 C 229.869 114.732,288.941 114.685,293.652 114.317 L 297.266 114.034 297.266 118.834 C 297.266 126.106,298.351 144.256,299.064 148.926 L 299.287 150.391 297.144 150.391 L 295.000 150.391 294.516 148.340 C 293.226 142.870,289.442 134.094,288.599 134.615 C 288.324 134.786,288.270 134.709,288.455 134.410 C 288.974 133.570,283.935 126.696,283.154 127.179 C 282.956 127.301,282.841 127.169,282.900 126.885 C 282.960 126.600,282.775 126.415,282.490 126.475 C 282.206 126.534,282.075 126.416,282.200 126.214 C 282.518 125.700,279.249 122.982,278.608 123.227 C 278.320 123.338,278.188 123.262,278.314 123.057 C 279.169 121.673,275.322 120.900,266.947 120.774 L 258.699 120.649 258.434 121.555 C 257.804 123.706,257.697 254.352,258.323 257.267 C 260.030 265.221,261.648 266.644,268.848 266.524 L 273.047 266.454 273.047 268.145 L 273.047 269.836 269.824 270.701 C 265.297 271.916,264.334 272.371,260.562 275.082 C 255.625 278.628,253.082 280.859,253.380 281.380 C 253.524 281.631,253.492 281.701,253.310 281.535 C 252.878 281.143,249.958 283.992,250.272 284.499 C 250.404 284.712,250.336 284.778,250.122 284.646 C 249.908 284.514,249.163 284.994,248.465 285.713 C 247.705 286.498,247.371 287.106,247.632 287.231 C 247.886 287.354,247.860 287.396,247.568 287.333 C 247.294 287.273,246.104 288.039,244.922 289.035 C 237.628 295.180,232.510 297.150,222.814 297.543 L 217.307 297.767 217.057 296.832 C 216.327 294.103,216.474 293.949,220.484 293.238 C 227.909 291.923,232.276 288.960,234.989 283.398 L 236.133 281.055 236.034 201.008 C 235.980 156.983,235.866 120.892,235.780 120.806 C 235.695 120.721,232.223 120.619,228.066 120.579 L 220.508 120.508 217.969 121.761 C 214.977 123.237,212.386 125.280,212.752 125.873 C 212.898 126.110,212.829 126.180,212.594 126.035 C 210.756 124.899,203.197 137.939,200.530 146.849 L 199.470 150.391 197.360 150.391 C 195.267 150.391,195.252 150.382,195.467 149.316 C 196.149 145.927,196.590 136.951,196.619 125.902 L 196.652 113.328 198.033 113.479 C 198.793 113.562,204.951 113.734,211.719 113.861 M231.934 113.941 C 231.558 114.039,230.942 114.039,230.566 113.941 C 230.190 113.843,230.498 113.763,231.250 113.763 C 232.002 113.763,232.310 113.843,231.934 113.941 M268.848 113.948 C 268.364 114.041,267.573 114.041,267.090 113.948 C 266.606 113.854,267.002 113.778,267.969 113.778 C 268.936 113.778,269.331 113.854,268.848 113.948 M280.762 113.952 C 280.171 114.041,279.204 114.041,278.613 113.952 C 278.022 113.862,278.506 113.789,279.688 113.789 C 280.869 113.789,281.353 113.862,280.762 113.952 M285.645 113.954 C 284.946 114.041,283.804 114.041,283.105 113.954 C 282.407 113.868,282.979 113.797,284.375 113.797 C 285.771 113.797,286.343 113.868,285.645 113.954 M196.066 115.723 C 196.047 116.897,195.952 117.162,195.743 116.628 C 195.467 115.923,195.612 114.063,195.944 114.063 C 196.026 114.063,196.081 114.810,196.066 115.723 M298.057 116.018 C 297.854 116.881,297.722 117.071,297.696 116.536 C 297.656 115.685,298.042 114.318,298.261 114.537 C 298.325 114.601,298.233 115.268,298.057 116.018 M268.473 121.383 C 267.139 121.459,264.854 121.459,263.395 121.384 C 261.936 121.308,263.027 121.246,265.820 121.246 C 268.613 121.245,269.807 121.307,268.473 121.383 M216.973 122.955 C 216.769 123.119,216.118 123.677,215.527 124.195 C 214.937 124.713,214.456 124.974,214.460 124.775 C 214.464 124.577,215.032 124.019,215.724 123.535 C 216.905 122.709,217.786 122.300,216.973 122.955 M185.092 131.485 C 185.235 131.397,185.379 131.788,185.414 132.354 L 185.475 133.383 184.939 132.414 C 184.644 131.881,184.410 131.270,184.420 131.055 C 184.429 130.840,184.526 130.885,184.635 131.155 C 184.743 131.425,184.949 131.573,185.092 131.485 M186.325 134.572 C 186.502 134.463,186.545 134.760,186.421 135.232 C 186.193 136.107,185.595 135.337,185.605 134.180 C 185.607 133.965,185.698 134.010,185.806 134.280 C 185.915 134.550,186.149 134.681,186.325 134.572 M298.910 135.538 C 299.004 136.177,298.939 136.924,298.765 137.198 C 298.576 137.496,298.447 137.031,298.443 136.035 C 298.437 134.107,298.664 133.864,298.910 135.538 M162.772 140.104 C 159.274 150.841,151.474 175.271,147.671 187.402 L 143.477 200.781 164.324 200.781 L 185.171 200.781 184.912 199.707 C 184.523 198.098,180.345 185.173,173.643 164.844 C 170.349 154.854,166.866 144.248,165.903 141.276 L 164.151 135.873 162.772 140.104 M290.988 139.648 C 290.988 139.863,290.737 139.600,290.430 139.063 C 290.123 138.525,289.871 137.910,289.871 137.695 C 289.871 137.480,290.123 137.744,290.430 138.281 C 290.737 138.818,290.988 139.434,290.988 139.648 M203.471 141.406 C 202.613 143.182,202.159 143.505,202.767 141.907 C 203.139 140.929,203.847 139.844,204.114 139.844 C 204.176 139.844,203.886 140.547,203.471 141.406 M165.619 142.165 C 165.623 142.562,165.463 142.506,165.074 141.973 C 164.770 141.559,164.617 141.067,164.732 140.881 C 164.985 140.471,165.611 141.377,165.619 142.165 M299.488 145.605 C 299.390 145.981,299.309 145.674,299.309 144.922 C 299.309 144.170,299.390 143.862,299.488 144.238 C 299.586 144.614,299.586 145.229,299.488 145.605 M293.204 145.526 C 293.341 146.073,293.344 146.630,293.211 146.763 C 293.078 146.896,292.969 146.633,292.969 146.178 C 292.969 145.723,292.661 145.172,292.285 144.953 C 291.642 144.578,291.641 144.554,292.278 144.543 C 292.682 144.536,293.054 144.932,293.204 145.526 M259.172 149.176 C 259.262 149.645,259.169 149.919,258.964 149.792 C 258.760 149.666,258.594 149.193,258.594 148.740 C 258.594 147.743,258.947 148.009,259.172 149.176 M235.445 157.310 C 235.368 158.553,235.303 157.637,235.302 155.273 C 235.301 152.910,235.365 151.893,235.444 153.013 C 235.522 154.133,235.523 156.067,235.445 157.310 M258.863 153.418 C 258.765 153.794,258.684 153.486,258.684 152.734 C 258.684 151.982,258.765 151.675,258.863 152.051 C 258.961 152.427,258.961 153.042,258.863 153.418 M169.942 155.328 C 170.158 155.895,170.262 156.431,170.173 156.519 C 170.085 156.608,169.825 156.144,169.597 155.489 C 169.089 154.032,169.395 153.889,169.942 155.328 M193.973 158.008 C 194.331 159.519,193.998 159.180,193.407 157.431 C 193.154 156.684,193.116 156.244,193.321 156.454 C 193.527 156.664,193.820 157.363,193.973 158.008 M235.433 161.812 C 235.339 162.298,235.259 161.992,235.255 161.133 C 235.250 160.273,235.327 159.876,235.425 160.249 C 235.522 160.623,235.526 161.326,235.433 161.812 M235.541 163.965 C 235.537 164.747,235.440 164.889,235.186 164.489 C 234.995 164.186,234.928 163.702,235.039 163.414 C 235.356 162.588,235.547 162.798,235.541 163.965 M235.489 167.871 L 235.432 170.508 235.164 168.164 C 234.912 165.966,234.965 165.234,235.375 165.234 C 235.469 165.234,235.521 166.421,235.489 167.871 M258.869 167.676 C 258.776 168.159,258.700 167.764,258.700 166.797 C 258.700 165.830,258.776 165.435,258.869 165.918 C 258.963 166.401,258.963 167.192,258.869 167.676 M154.917 168.260 C 154.497 168.680,154.274 168.091,154.569 167.341 C 154.846 166.637,154.867 166.636,155.003 167.316 C 155.083 167.709,155.044 168.133,154.917 168.260 M198.189 170.007 C 197.854 170.550,197.287 169.931,197.532 169.291 C 197.714 168.817,197.833 168.794,198.075 169.187 C 198.246 169.463,198.298 169.832,198.189 170.007 M138.692 185.297 C 138.145 186.736,137.839 186.593,138.347 185.136 C 138.575 184.481,138.835 184.017,138.923 184.106 C 139.012 184.194,138.908 184.730,138.692 185.297 M180.561 187.678 C 180.663 188.212,180.617 188.568,180.459 188.471 C 180.301 188.373,180.088 187.856,179.986 187.322 C 179.884 186.788,179.930 186.432,180.088 186.529 C 180.246 186.627,180.459 187.144,180.561 187.678 M145.913 195.755 C 145.576 196.478,145.404 196.719,145.529 196.289 C 145.655 195.859,145.870 194.980,146.006 194.336 C 146.150 193.658,146.311 193.433,146.389 193.802 C 146.463 194.153,146.249 195.032,145.913 195.755 M184.375 199.632 C 184.375 200.334,184.103 200.385,180.762 200.317 L 177.148 200.243 180.507 200.024 C 183.420 199.834,183.853 199.714,183.764 199.119 C 183.708 198.742,183.823 198.533,184.019 198.654 C 184.215 198.775,184.375 199.215,184.375 199.632 M156.250 200.241 C 156.250 200.323,155.063 200.364,153.613 200.332 C 151.208 200.278,151.131 200.253,152.734 200.037 C 154.407 199.812,156.250 199.919,156.250 200.241 M164.258 200.000 C 164.413 200.252,163.205 200.365,160.863 200.318 L 157.227 200.245 160.547 200.000 C 162.373 199.865,163.901 199.722,163.942 199.682 C 163.983 199.642,164.125 199.785,164.258 200.000 M149.328 200.285 C 148.422 200.367,146.840 200.368,145.813 200.288 C 144.786 200.207,145.527 200.140,147.461 200.139 C 149.395 200.137,150.235 200.204,149.328 200.285 M171.793 200.288 C 170.566 200.365,168.456 200.366,167.105 200.290 C 165.754 200.213,166.758 200.150,169.336 200.149 C 171.914 200.148,173.020 200.211,171.793 200.288 M144.434 208.082 C 144.058 208.180,143.442 208.180,143.066 208.082 C 142.690 207.984,142.998 207.903,143.750 207.903 C 144.502 207.903,144.810 207.984,144.434 208.082 M157.329 208.081 C 156.955 208.179,156.252 208.182,155.766 208.089 C 155.280 207.995,155.586 207.915,156.445 207.911 C 157.305 207.907,157.702 207.983,157.329 208.081 M165.723 208.095 C 165.024 208.182,163.882 208.182,163.184 208.095 C 162.485 208.008,163.057 207.938,164.453 207.938 C 165.850 207.938,166.421 208.008,165.723 208.095 M170.313 208.221 C 170.740 208.511,170.582 208.547,169.727 208.355 C 168.290 208.034,167.978 207.810,168.978 207.818 C 169.390 207.822,169.990 208.003,170.313 208.221 M191.573 222.266 C 191.755 222.944,191.724 223.063,191.472 222.656 C 191.273 222.334,190.993 221.631,190.849 221.094 C 190.667 220.415,190.698 220.296,190.950 220.703 C 191.149 221.025,191.429 221.729,191.573 222.266 M235.932 222.168 C 235.927 222.950,235.831 223.092,235.577 222.692 C 235.385 222.389,235.319 221.905,235.429 221.617 C 235.746 220.791,235.938 221.001,235.932 222.168 M258.486 229.395 C 258.399 230.093,258.328 229.521,258.328 228.125 C 258.328 226.729,258.399 226.157,258.486 226.855 C 258.572 227.554,258.572 228.696,258.486 229.395 M235.827 233.881 C 235.737 234.475,235.662 234.082,235.659 233.008 C 235.656 231.934,235.729 231.448,235.822 231.928 C 235.915 232.409,235.917 233.288,235.827 233.881 M235.829 239.551 C 235.743 240.249,235.672 239.678,235.672 238.281 C 235.672 236.885,235.743 236.313,235.829 237.012 C 235.916 237.710,235.916 238.853,235.829 239.551 M131.135 245.801 C 131.042 246.284,130.966 245.889,130.966 244.922 C 130.966 243.955,131.042 243.560,131.135 244.043 C 131.228 244.526,131.228 245.317,131.135 245.801 M258.479 248.531 C 258.386 249.017,258.306 248.711,258.302 247.852 C 258.297 246.992,258.374 246.595,258.472 246.968 C 258.569 247.342,258.573 248.045,258.479 248.531 M226.554 252.468 C 226.816 253.288,226.958 254.031,226.869 254.121 C 226.780 254.210,226.418 253.379,226.065 252.275 C 225.712 251.170,225.570 250.426,225.750 250.622 C 225.930 250.817,226.292 251.648,226.554 252.468 M235.816 259.668 C 235.718 260.044,235.638 259.736,235.638 258.984 C 235.638 258.232,235.718 257.925,235.816 258.301 C 235.914 258.677,235.914 259.292,235.816 259.668 M235.823 262.988 C 235.729 263.472,235.653 263.076,235.653 262.109 C 235.653 261.143,235.729 260.747,235.823 261.230 C 235.916 261.714,235.916 262.505,235.823 262.988 M146.484 265.080 C 146.484 265.165,145.683 265.234,144.704 265.234 C 143.724 265.234,143.008 265.097,143.112 264.928 C 143.296 264.630,146.484 264.773,146.484 265.080 M235.823 266.499 C 235.730 266.985,235.650 266.680,235.645 265.820 C 235.641 264.961,235.717 264.563,235.815 264.937 C 235.913 265.310,235.917 266.013,235.823 266.499 M186.804 266.135 C 186.263 266.379,185.772 266.396,185.555 266.179 C 185.339 265.962,185.691 265.803,186.447 265.777 C 187.609 265.737,187.634 265.761,186.804 266.135 M127.246 269.818 C 126.226 269.899,124.556 269.899,123.535 269.818 C 122.515 269.738,123.350 269.672,125.391 269.672 C 127.432 269.672,128.267 269.738,127.246 269.818 M225.527 269.824 C 225.627 269.985,224.275 270.070,222.523 270.012 C 217.047 269.831,216.427 269.665,220.973 269.597 C 223.377 269.561,225.427 269.663,225.527 269.824 M228.423 269.800 C 228.049 269.897,227.346 269.901,226.860 269.808 C 226.374 269.714,226.680 269.634,227.539 269.630 C 228.398 269.625,228.796 269.702,228.423 269.800 M198.926 270.204 C 198.228 270.291,197.085 270.291,196.387 270.204 C 195.688 270.118,196.260 270.047,197.656 270.047 C 199.053 270.047,199.624 270.118,198.926 270.204 M235.832 275.675 C 235.747 276.485,235.677 275.918,235.675 274.414 C 235.673 272.910,235.743 272.247,235.829 272.941 C 235.915 273.634,235.917 274.864,235.832 275.675 M216.327 296.142 C 216.195 297.428,216.187 297.420,215.997 295.811 C 215.889 294.903,215.950 294.310,216.132 294.492 C 216.314 294.674,216.402 295.416,216.327 296.142 M231.641 297.266 C 231.318 297.474,230.703 297.629,230.273 297.611 C 229.630 297.584,229.664 297.523,230.469 297.266 C 231.850 296.823,232.325 296.823,231.641 297.266 M224.909 298.326 C 224.322 298.415,223.268 298.417,222.566 298.330 C 221.863 298.243,222.344 298.170,223.633 298.168 C 224.922 298.166,225.496 298.237,224.909 298.326 " stroke="none" fill="#041b3b" fill-rule="evenodd"></path><path id="path2" d="M207.910 113.952 C 208.501 114.041,209.468 114.041,210.059 113.952 C 210.649 113.862,210.166 113.789,208.984 113.789 C 207.803 113.789,207.319 113.862,207.910 113.952 M281.548 114.729 C 282.033 114.823,282.737 114.819,283.110 114.722 C 283.483 114.624,283.086 114.547,282.227 114.552 C 281.367 114.556,281.062 114.636,281.548 114.729 M196.583 116.602 C 196.587 117.461,196.667 117.767,196.761 117.281 C 196.854 116.795,196.851 116.092,196.753 115.718 C 196.655 115.345,196.579 115.742,196.583 116.602 M265.527 120.595 C 266.226 120.682,267.368 120.682,268.066 120.595 C 268.765 120.508,268.193 120.438,266.797 120.438 C 265.400 120.438,264.829 120.508,265.527 120.595 M257.955 140.430 C 257.956 142.578,258.022 143.407,258.101 142.272 C 258.180 141.137,258.179 139.379,258.099 138.366 C 258.019 137.353,257.954 138.281,257.955 140.430 M236.105 159.570 C 236.105 164.512,236.161 166.479,236.229 163.943 C 236.298 161.406,236.297 157.363,236.229 154.958 C 236.160 152.554,236.105 154.629,236.105 159.570 M169.141 200.781 L 152.930 200.990 169.238 201.081 C 179.911 201.140,185.547 201.037,185.547 200.781 C 185.547 200.566,185.503 200.432,185.449 200.482 C 185.396 200.532,178.057 200.667,169.141 200.781 M236.477 223.633 C 236.478 226.211,236.541 227.215,236.618 225.864 C 236.694 224.512,236.694 222.403,236.616 221.176 C 236.539 219.949,236.476 221.055,236.477 223.633 M201.653 253.906 C 201.653 254.658,201.734 254.966,201.832 254.590 C 201.930 254.214,201.930 253.599,201.832 253.223 C 201.734 252.847,201.653 253.154,201.653 253.906 M236.481 269.531 C 236.481 272.432,236.543 273.618,236.618 272.168 C 236.693 270.718,236.693 268.345,236.618 266.895 C 236.543 265.444,236.481 266.631,236.481 269.531 M225.293 269.033 C 225.991 269.119,227.134 269.119,227.832 269.033 C 228.530 268.946,227.959 268.875,226.563 268.875 C 225.166 268.875,224.595 268.946,225.293 269.033 M98.931 269.421 C 99.525 269.511,100.404 269.508,100.884 269.416 C 101.365 269.323,100.879 269.249,99.805 269.252 C 98.730 269.255,98.337 269.331,98.931 269.421 M196.973 269.410 C 197.349 269.508,197.964 269.508,198.340 269.410 C 198.716 269.312,198.408 269.231,197.656 269.231 C 196.904 269.231,196.597 269.312,196.973 269.410 M247.833 286.035 L 246.289 287.695 247.949 286.151 C 249.493 284.715,249.789 284.375,249.493 284.375 C 249.430 284.375,248.682 285.122,247.833 286.035 " stroke="none" fill="#59584c" fill-rule="evenodd"></path><path id="path3" d="M161.797 114.501 C 161.112 116.695,161.408 116.791,162.207 114.634 C 162.562 113.675,162.729 112.891,162.576 112.891 C 162.424 112.891,162.073 113.615,161.797 114.501 M211.626 113.948 C 212.112 114.042,212.815 114.038,213.188 113.940 C 213.562 113.842,213.164 113.766,212.305 113.770 C 211.445 113.775,211.140 113.855,211.626 113.948 M230.566 113.941 C 230.942 114.039,231.558 114.039,231.934 113.941 C 232.310 113.843,232.002 113.763,231.250 113.763 C 230.498 113.763,230.190 113.843,230.566 113.941 M267.090 113.948 C 267.573 114.041,268.364 114.041,268.848 113.948 C 269.331 113.854,268.936 113.778,267.969 113.778 C 267.002 113.778,266.606 113.854,267.090 113.948 M278.613 113.952 C 279.204 114.041,280.171 114.041,280.762 113.952 C 281.353 113.862,280.869 113.789,279.688 113.789 C 278.506 113.789,278.022 113.862,278.613 113.952 M283.105 113.954 C 283.804 114.041,284.946 114.041,285.645 113.954 C 286.343 113.868,285.771 113.797,284.375 113.797 C 282.979 113.797,282.407 113.868,283.105 113.954 M195.621 114.968 C 195.526 115.466,195.581 116.213,195.743 116.628 C 195.952 117.162,196.047 116.897,196.066 115.723 C 196.096 113.901,195.891 113.554,195.621 114.968 M277.832 114.733 C 278.423 114.822,279.390 114.822,279.980 114.733 C 280.571 114.643,280.088 114.570,278.906 114.570 C 277.725 114.570,277.241 114.643,277.832 114.733 M297.900 115.054 C 297.766 115.403,297.674 116.070,297.696 116.536 C 297.722 117.071,297.854 116.881,298.057 116.018 C 298.398 114.567,298.305 113.997,297.900 115.054 M263.395 121.384 C 264.854 121.459,267.139 121.459,268.473 121.383 C 269.807 121.307,268.613 121.245,265.820 121.246 C 263.027 121.246,261.936 121.308,263.395 121.384 M215.856 123.104 C 215.951 123.258,215.641 123.656,215.167 123.988 C 214.693 124.320,214.382 124.666,214.477 124.758 C 214.571 124.849,215.212 124.451,215.901 123.874 C 216.908 123.029,217.009 122.824,216.418 122.824 C 216.013 122.824,215.760 122.950,215.856 123.104 M184.420 131.055 C 184.410 131.270,184.644 131.881,184.939 132.414 L 185.475 133.383 185.414 132.354 C 185.379 131.788,185.235 131.397,185.092 131.485 C 184.949 131.573,184.743 131.425,184.635 131.155 C 184.526 130.885,184.429 130.840,184.420 131.055 M196.596 132.617 C 196.599 133.691,196.675 134.084,196.765 133.491 C 196.854 132.897,196.852 132.018,196.759 131.538 C 196.667 131.057,196.593 131.543,196.596 132.617 M185.605 134.180 C 185.595 135.337,186.193 136.107,186.421 135.232 C 186.545 134.760,186.502 134.463,186.325 134.572 C 186.149 134.681,185.915 134.550,185.806 134.280 C 185.698 134.010,185.607 133.965,185.605 134.180 M298.443 136.035 C 298.447 137.031,298.576 137.496,298.765 137.198 C 299.062 136.730,298.915 134.375,298.588 134.375 C 298.505 134.375,298.440 135.122,298.443 136.035 M289.871 137.695 C 289.871 137.910,290.123 138.525,290.430 139.063 C 290.737 139.600,290.988 139.863,290.988 139.648 C 290.988 139.434,290.737 138.818,290.430 138.281 C 290.123 137.744,289.871 137.480,289.871 137.695 M203.586 140.345 C 203.095 140.936,202.285 142.969,202.540 142.969 C 202.637 142.969,203.056 142.266,203.471 141.406 C 204.258 139.777,204.288 139.499,203.586 140.345 M164.732 140.881 C 164.617 141.067,164.770 141.559,165.074 141.973 C 165.463 142.506,165.623 142.562,165.619 142.165 C 165.611 141.377,164.985 140.471,164.732 140.881 M299.309 144.922 C 299.309 145.674,299.390 145.981,299.488 145.605 C 299.586 145.229,299.586 144.614,299.488 144.238 C 299.390 143.862,299.309 144.170,299.309 144.922 M257.962 148.633 C 257.962 151.211,258.026 152.215,258.102 150.864 C 258.179 149.512,258.178 147.403,258.101 146.176 C 258.023 144.949,257.961 146.055,257.962 148.633 M292.285 144.953 C 292.661 145.172,292.969 145.723,292.969 146.178 C 292.969 146.633,293.078 146.896,293.211 146.763 C 293.691 146.283,292.955 144.531,292.278 144.543 C 291.641 144.554,291.642 144.578,292.285 144.953 M258.594 148.740 C 258.594 149.193,258.760 149.666,258.964 149.792 C 259.169 149.919,259.262 149.645,259.172 149.176 C 258.947 148.009,258.594 147.743,258.594 148.740 M235.302 155.273 C 235.303 157.637,235.368 158.553,235.445 157.310 C 235.523 156.067,235.522 154.133,235.444 153.013 C 235.365 151.893,235.301 152.910,235.302 155.273 M258.684 152.734 C 258.684 153.486,258.765 153.794,258.863 153.418 C 258.961 153.042,258.961 152.427,258.863 152.051 C 258.765 151.675,258.684 151.982,258.684 152.734 M169.597 155.489 C 169.825 156.144,170.085 156.608,170.173 156.519 C 170.367 156.326,169.630 154.297,169.366 154.297 C 169.264 154.297,169.368 154.833,169.597 155.489 M193.407 157.431 C 193.998 159.180,194.331 159.519,193.973 158.008 C 193.820 157.363,193.527 156.664,193.321 156.454 C 193.116 156.244,193.154 156.684,193.407 157.431 M235.255 161.133 C 235.259 161.992,235.339 162.298,235.433 161.812 C 235.526 161.326,235.522 160.623,235.425 160.249 C 235.327 159.876,235.250 160.273,235.255 161.133 M235.039 163.414 C 234.928 163.702,234.995 164.186,235.186 164.489 C 235.440 164.889,235.537 164.747,235.541 163.965 C 235.547 162.798,235.356 162.588,235.039 163.414 M235.049 165.527 C 234.965 165.688,235.016 166.875,235.164 168.164 L 235.432 170.508 235.489 167.871 C 235.543 165.419,235.427 164.805,235.049 165.527 M258.700 166.797 C 258.700 167.764,258.776 168.159,258.869 167.676 C 258.963 167.192,258.963 166.401,258.869 165.918 C 258.776 165.435,258.700 165.830,258.700 166.797 M154.569 167.341 C 154.409 167.748,154.371 168.173,154.483 168.285 C 154.839 168.641,155.153 168.058,155.003 167.316 C 154.867 166.636,154.846 166.637,154.569 167.341 M236.085 172.656 C 236.085 175.127,236.149 176.138,236.226 174.902 C 236.304 173.667,236.304 171.646,236.226 170.410 C 236.149 169.175,236.085 170.186,236.085 172.656 M197.382 169.490 C 196.988 170.121,197.019 170.222,197.579 170.140 C 197.944 170.087,198.211 169.923,198.174 169.777 C 197.941 168.872,197.800 168.821,197.382 169.490 M138.347 185.136 C 138.118 185.792,138.014 186.328,138.116 186.328 C 138.380 186.328,139.117 184.299,138.923 184.106 C 138.835 184.017,138.575 184.481,138.347 185.136 M179.986 187.322 C 180.088 187.856,180.301 188.373,180.459 188.471 C 180.617 188.568,180.663 188.212,180.561 187.678 C 180.459 187.144,180.246 186.627,180.088 186.529 C 179.930 186.432,179.884 186.788,179.986 187.322 M146.006 194.336 C 145.870 194.980,145.655 195.859,145.529 196.289 C 145.404 196.719,145.576 196.478,145.913 195.755 C 146.249 195.032,146.463 194.153,146.389 193.802 C 146.311 193.433,146.150 193.658,146.006 194.336 M183.764 199.119 C 183.853 199.714,183.420 199.834,180.507 200.024 L 177.148 200.243 180.762 200.317 C 184.289 200.389,185.678 199.680,184.019 198.654 C 183.823 198.533,183.708 198.742,183.764 199.119 M152.734 200.037 C 151.131 200.253,151.208 200.278,153.613 200.332 C 156.249 200.391,157.028 200.220,155.371 199.946 C 154.888 199.866,153.701 199.907,152.734 200.037 M160.547 200.000 L 157.227 200.245 160.863 200.318 C 163.205 200.365,164.413 200.252,164.258 200.000 C 164.125 199.785,163.983 199.642,163.942 199.682 C 163.901 199.722,162.373 199.865,160.547 200.000 M145.813 200.288 C 146.840 200.368,148.422 200.367,149.328 200.285 C 150.235 200.204,149.395 200.137,147.461 200.139 C 145.527 200.140,144.786 200.207,145.813 200.288 M167.105 200.290 C 168.456 200.366,170.566 200.365,171.793 200.288 C 173.020 200.211,171.914 200.148,169.336 200.149 C 166.758 200.150,165.754 200.213,167.105 200.290 M145.031 201.069 C 146.058 201.150,147.640 201.149,148.547 201.067 C 149.454 200.985,148.613 200.919,146.680 200.920 C 144.746 200.921,144.004 200.988,145.031 201.069 M151.079 201.058 C 151.565 201.151,152.268 201.147,152.641 201.050 C 153.015 200.952,152.617 200.875,151.758 200.880 C 150.898 200.884,150.593 200.964,151.079 201.058 M143.066 208.082 C 143.442 208.180,144.058 208.180,144.434 208.082 C 144.810 207.984,144.502 207.903,143.750 207.903 C 142.998 207.903,142.690 207.984,143.066 208.082 M155.766 208.089 C 156.252 208.182,156.955 208.179,157.329 208.081 C 157.702 207.983,157.305 207.907,156.445 207.911 C 155.586 207.915,155.280 207.995,155.766 208.089 M163.184 208.095 C 163.882 208.182,165.024 208.182,165.723 208.095 C 166.421 208.008,165.850 207.938,164.453 207.938 C 163.057 207.938,162.485 208.008,163.184 208.095 M168.392 207.953 C 168.481 208.030,169.082 208.211,169.727 208.355 C 170.582 208.547,170.740 208.511,170.313 208.221 C 169.785 207.864,168.000 207.615,168.392 207.953 M190.849 221.094 C 190.993 221.631,191.273 222.334,191.472 222.656 C 191.724 223.063,191.755 222.944,191.573 222.266 C 191.429 221.729,191.149 221.025,190.950 220.703 C 190.698 220.296,190.667 220.415,190.849 221.094 M235.429 221.617 C 235.319 221.905,235.385 222.389,235.577 222.692 C 235.831 223.092,235.927 222.950,235.932 222.168 C 235.938 221.001,235.746 220.791,235.429 221.617 M258.328 228.125 C 258.328 229.521,258.399 230.093,258.486 229.395 C 258.572 228.696,258.572 227.554,258.486 226.855 C 258.399 226.157,258.328 226.729,258.328 228.125 M236.508 246.680 C 236.508 256.563,236.559 260.549,236.621 255.540 C 236.683 250.530,236.683 242.444,236.621 237.571 C 236.559 232.698,236.508 236.797,236.508 246.680 M235.659 233.008 C 235.662 234.082,235.737 234.475,235.827 233.881 C 235.917 233.288,235.915 232.409,235.822 231.928 C 235.729 231.448,235.656 231.934,235.659 233.008 M235.672 238.281 C 235.672 239.678,235.743 240.249,235.829 239.551 C 235.916 238.853,235.916 237.710,235.829 237.012 C 235.743 236.313,235.672 236.885,235.672 238.281 M130.966 244.922 C 130.966 245.889,131.042 246.284,131.135 245.801 C 131.228 245.317,131.228 244.526,131.135 244.043 C 131.042 243.560,130.966 243.955,130.966 244.922 M258.302 247.852 C 258.306 248.711,258.386 249.017,258.479 248.531 C 258.573 248.045,258.569 247.342,258.472 246.968 C 258.374 246.595,258.297 246.992,258.302 247.852 M226.065 252.275 C 226.418 253.379,226.780 254.210,226.869 254.121 C 227.080 253.910,226.176 251.083,225.750 250.622 C 225.570 250.426,225.712 251.170,226.065 252.275 M235.638 258.984 C 235.638 259.736,235.718 260.044,235.816 259.668 C 235.914 259.292,235.914 258.677,235.816 258.301 C 235.718 257.925,235.638 258.232,235.638 258.984 M109.466 258.757 C 108.802 259.818,109.114 260.171,109.989 259.348 C 110.511 258.858,110.938 258.430,110.938 258.395 C 110.938 258.116,109.673 258.427,109.466 258.757 M235.653 262.109 C 235.653 263.076,235.729 263.472,235.823 262.988 C 235.916 262.505,235.916 261.714,235.823 261.230 C 235.729 260.747,235.653 261.143,235.653 262.109 M143.112 264.928 C 143.008 265.097,143.724 265.234,144.704 265.234 C 145.683 265.234,146.484 265.165,146.484 265.080 C 146.484 264.773,143.296 264.630,143.112 264.928 M235.645 265.820 C 235.650 266.680,235.730 266.985,235.823 266.499 C 235.917 266.013,235.913 265.310,235.815 264.937 C 235.717 264.563,235.641 264.961,235.645 265.820 M185.555 266.179 C 185.772 266.396,186.263 266.379,186.804 266.135 C 187.634 265.761,187.609 265.737,186.447 265.777 C 185.691 265.803,185.339 265.962,185.555 266.179 M96.811 268.198 C 96.733 269.183,96.772 270.054,96.898 270.132 C 97.024 270.210,97.167 269.403,97.216 268.340 C 97.327 265.905,97.003 265.791,96.811 268.198 M199.516 269.417 C 200.002 269.510,200.705 269.507,201.079 269.409 C 201.452 269.311,201.055 269.235,200.195 269.239 C 199.336 269.243,199.030 269.323,199.516 269.417 M123.535 269.818 C 124.556 269.899,126.226 269.899,127.246 269.818 C 128.267 269.738,127.432 269.672,125.391 269.672 C 123.350 269.672,122.515 269.738,123.535 269.818 M217.969 269.785 C 221.173 270.071,225.695 270.094,225.527 269.824 C 225.427 269.663,223.377 269.561,220.973 269.597 C 218.569 269.633,217.217 269.718,217.969 269.785 M226.860 269.808 C 227.346 269.901,228.049 269.897,228.423 269.800 C 228.796 269.702,228.398 269.625,227.539 269.630 C 226.680 269.634,226.374 269.714,226.860 269.808 M196.387 270.204 C 197.085 270.291,198.228 270.291,198.926 270.204 C 199.624 270.118,199.053 270.047,197.656 270.047 C 196.260 270.047,195.688 270.118,196.387 270.204 M235.675 274.414 C 235.677 275.918,235.747 276.485,235.832 275.675 C 235.917 274.864,235.915 273.634,235.829 272.941 C 235.743 272.247,235.673 272.910,235.675 274.414 M251.413 282.376 C 250.083 283.726,249.677 284.371,250.023 284.584 C 250.310 284.762,250.413 284.727,250.272 284.499 C 250.013 284.080,252.846 281.101,253.182 281.437 C 253.294 281.549,253.385 281.377,253.385 281.055 C 253.385 280.306,253.577 280.178,251.413 282.376 M215.997 295.811 C 216.187 297.420,216.195 297.428,216.327 296.142 C 216.402 295.416,216.314 294.674,216.132 294.492 C 215.950 294.310,215.889 294.903,215.997 295.811 M230.469 297.266 C 229.664 297.523,229.630 297.584,230.273 297.611 C 230.703 297.629,231.318 297.474,231.641 297.266 C 232.325 296.823,231.850 296.823,230.469 297.266 M222.566 298.330 C 223.268 298.417,224.322 298.415,224.909 298.326 C 225.496 298.237,224.922 298.166,223.633 298.168 C 222.344 298.170,221.863 298.243,222.566 298.330 " stroke="none" fill="#0b1f44" fill-rule="evenodd"></path><path id="path4" d="M204.400 113.952 C 204.994 114.042,205.873 114.040,206.353 113.947 C 206.833 113.854,206.348 113.781,205.273 113.784 C 204.199 113.787,203.806 113.862,204.400 113.952 M219.634 114.343 C 220.228 114.433,221.107 114.430,221.587 114.337 C 222.068 114.245,221.582 114.171,220.508 114.174 C 219.434 114.177,219.041 114.253,219.634 114.343 M284.473 114.733 C 285.063 114.822,286.030 114.822,286.621 114.733 C 287.212 114.643,286.729 114.570,285.547 114.570 C 284.365 114.570,283.882 114.643,284.473 114.733 M262.598 120.582 C 262.974 120.680,263.589 120.680,263.965 120.582 C 264.341 120.484,264.033 120.403,263.281 120.403 C 262.529 120.403,262.222 120.484,262.598 120.582 M269.629 120.582 C 270.005 120.680,270.620 120.680,270.996 120.582 C 271.372 120.484,271.064 120.403,270.313 120.403 C 269.561 120.403,269.253 120.484,269.629 120.582 M257.934 134.570 C 257.936 135.859,258.009 136.340,258.096 135.638 C 258.183 134.935,258.181 133.881,258.092 133.294 C 258.002 132.707,257.931 133.281,257.934 134.570 M236.044 139.063 C 236.044 140.029,236.120 140.425,236.213 139.941 C 236.306 139.458,236.306 138.667,236.213 138.184 C 236.120 137.700,236.044 138.096,236.044 139.063 M236.089 145.898 C 236.090 148.691,236.152 149.783,236.228 148.324 C 236.303 146.864,236.302 144.579,236.226 143.245 C 236.150 141.912,236.089 143.105,236.089 145.898 M236.495 210.742 C 236.495 215.469,236.551 217.349,236.620 214.920 C 236.689 212.491,236.688 208.624,236.619 206.326 C 236.550 204.028,236.494 206.016,236.495 210.742 M257.520 205.664 C 257.525 206.523,257.605 206.829,257.698 206.343 C 257.792 205.857,257.788 205.154,257.690 204.781 C 257.592 204.407,257.516 204.805,257.520 205.664 M184.478 206.921 C 185.072 207.011,185.951 207.008,186.431 206.916 C 186.912 206.823,186.426 206.749,185.352 206.752 C 184.277 206.755,183.884 206.831,184.478 206.921 M257.605 230.273 C 257.605 242.949,257.654 248.078,257.715 241.671 C 257.775 235.264,257.775 224.893,257.715 218.624 C 257.654 212.356,257.605 217.598,257.605 230.273 M120.431 269.042 C 122.753 269.111,126.444 269.111,128.635 269.041 C 130.825 268.972,128.926 268.915,124.414 268.915 C 119.902 268.916,118.110 268.973,120.431 269.042 M215.155 269.041 C 216.938 269.113,219.750 269.113,221.405 269.040 C 223.060 268.967,221.602 268.908,218.164 268.908 C 214.727 268.909,213.373 268.968,215.155 269.041 M194.629 269.410 C 195.005 269.508,195.620 269.508,195.996 269.410 C 196.372 269.312,196.064 269.231,195.313 269.231 C 194.561 269.231,194.253 269.312,194.629 269.410 M236.435 276.172 C 236.435 277.139,236.511 277.534,236.604 277.051 C 236.697 276.567,236.697 275.776,236.604 275.293 C 236.511 274.810,236.435 275.205,236.435 276.172 M222.173 297.542 C 222.658 297.635,223.362 297.632,223.735 297.534 C 224.108 297.436,223.711 297.360,222.852 297.364 C 221.992 297.368,221.687 297.448,222.173 297.542 " stroke="none" fill="#787454" fill-rule="evenodd"></path></g></svg>